<svg width="46" height="44" fill="none" xmlns="http://www.w3.org/2000/svg"><path d="M41.947 8.707c-4.232-4.284-10.556-5.164-15.684-2.71l-2.208-2.222a2.29 2.29 0 00-1.621-.677 2.277 2.277 0 00-1.622.677l-.184.208C20.306 1.737 18.398 0 16.098 0c-2.53 0-4.6 2.084-4.6 4.632 0 .208 0 .416.07.602-1.403.81-2.37 2.292-2.37 4.03 0 1.064.369 2.014.967 2.801a2.24 2.24 0 00-.966 1.83v3.126A13.867 13.867 0 000 30.105C0 37.77 6.186 44 13.798 44s13.798-6.23 13.798-13.895c0-2.871-.884-5.672-2.532-8.015a13.785 13.785 0 00-6.666-5.069v-3.126a2.257 2.257 0 00-.966-1.83c.598-.787.966-1.737.966-2.802 0-.208 0-.417-.07-.602.415-.232.76-.556 1.059-.834a6.886 6.886 0 013.61 6.068v.185c.299.162.575.394.874.579.437-.973 1.035-1.922 1.817-2.686a9.185 9.185 0 016.508-2.71c2.44 0 4.78.975 6.508 2.71a9.315 9.315 0 012.69 6.553 9.315 9.315 0 01-2.69 6.554c-1.84 1.853-4.209 2.71-6.67 2.71.162.74.162 1.528.162 2.315 0 .788-.07 1.552-.161 2.316 3.61 0 7.175-1.32 9.912-4.076a13.858 13.858 0 003-4.502 13.935 13.935 0 000-10.633 13.858 13.858 0 00-3-4.503zm-25.85-6.391c1.266 0 2.3 1.042 2.3 2.316 0 .764-.39 1.412-.965 1.83a4.508 4.508 0 00-3.634-1.83 2.315 2.315 0 012.3-2.316zm-3.633 5.118a4.508 4.508 0 003.634 1.83 2.315 2.315 0 01-2.3 2.315 2.315 2.315 0 01-2.3-2.316c0-.764.391-1.412.966-1.83zm10.533 22.671c0 5.118-4.116 9.263-9.199 9.263-5.082 0-9.199-4.145-9.199-9.263s4.117-9.263 9.2-9.263c5.082 0 9.198 4.145 9.198 9.263z" fill="#fff"/></svg>