<svg width="30" height="30" fill="none" xmlns="http://www.w3.org/2000/svg"><circle cx="15" cy="15" r="15" fill="url(#paint0_linear_5_277)"/><path d="M18 9.31a.3.3 0 00-.093-.217.325.325 0 00-.225-.09H16.09a3.113 3.113 0 00-2.182.745 2.87 2.87 0 00-1 2.005v1.65h-1.59a.325.325 0 00-.226.089.3.3 0 00-.093.216v1.588a.3.3 0 00.093.216c.06.057.14.09.225.09h1.591v4.093a.3.3 0 00.093.215c.06.058.14.09.225.09h1.91a.325.325 0 00.224-.09.3.3 0 00.093-.215V15.6h1.668c.07.001.14-.02.196-.061a.305.305 0 00.116-.165l.458-1.588a.293.293 0 00-.054-.264.327.327 0 00-.251-.12h-2.133v-1.65a.603.603 0 01.208-.393.651.651 0 01.429-.157h1.59a.325.325 0 00.226-.09.3.3 0 00.093-.216V9.31z" fill="#fff"/><defs><linearGradient id="paint0_linear_5_277" x1="15" y1="0" x2="15" y2="30" gradientUnits="userSpaceOnUse"><stop stop-color="#3874CB"/><stop offset="1" stop-color="#1C57AE"/></linearGradient></defs></svg>