<svg width="732" height="50" fill="none" xmlns="http://www.w3.org/2000/svg"><path d="M88.595 50H68.377l20.218-25h22.465L88.595 50zm0-50H68.377l20.218 25h22.465L88.595 0zM54.407 50H34.188l20.219-25H76.87L54.407 50zm0-50H34.188l20.219 25H76.87L54.407 0zM20.218 50H0l20.218-25h22.465L20.218 50zm0-50H0l20.218 25h22.465L20.218 0zm378.377 50h-20.218l20.218-25h22.465l-22.465 25zm0-50h-20.218l20.218 25h22.465L398.595 0zm-34.188 50h-20.219l20.219-25h22.464l-22.464 25zm0-50h-20.219l20.219 25h22.464L364.407 0zm-34.189 50H310l20.218-25h22.465l-22.465 25zm0-50H310l20.218 25h22.465L330.218 0zm378.377 50h-20.218l20.218-25h22.465l-22.465 25zm0-50h-20.218l20.218 25h22.465L708.595 0zm-34.189 50h-20.218l20.218-25h22.465l-22.465 25zm0-50h-20.218l20.218 25h22.465L674.406 0zm-34.188 50H620l20.218-25h22.465l-22.465 25zm0-50H620l20.218 25h22.465L640.218 0z" opacity=".1" fill="#3874CB"/></svg>