<svg width="1370" height="64" fill="none" xmlns="http://www.w3.org/2000/svg"><path fill="#D3D7E0" d="M0 24h1370v2H0z"/><path d="M405.595 50h-20.218l20.218-25h22.465l-22.465 25zm0-50h-20.218l20.218 25h22.465L405.595 0zm-34.188 50h-20.219l20.219-25h22.464l-22.464 25zm0-50h-20.219l20.219 25h22.464L371.407 0zm-34.189 50H317l20.218-25h22.465l-22.465 25zm0-50H317l20.218 25h22.465L337.218 0zm378.377 50h-20.218l20.218-25h22.465l-22.465 25zm0-50h-20.218l20.218 25h22.465L715.595 0zm-34.188 50h-20.219l20.219-25h22.464l-22.464 25zm0-50h-20.219l20.219 25h22.464L681.407 0zm-34.189 50H627l20.218-25h22.465l-22.465 25zm0-50H627l20.218 25h22.465L647.218 0zm378.372 50h-20.21l20.21-25h22.47l-22.47 25zm0-50h-20.21l20.21 25h22.47l-22.47-25zm-34.184 50h-20.218l20.218-25h22.464l-22.464 25zm0-50h-20.218l20.218 25h22.464L991.406 0zm-34.188 50H937l20.218-25h22.465l-22.465 25zm0-50H937l20.218 25h22.465L957.218 0z" opacity=".1" fill="#3874CB"/><path fill="#D3D7E0" d="M217 24h2v40h-2z"/><circle cx="218" cy="24" r="8" fill="#D3D7E0"/><path fill="#D3D7E0" d="M527 24h2v40h-2z"/><circle cx="528" cy="24" r="8" fill="#D3D7E0"/><path fill="#D3D7E0" d="M837 24h2v40h-2z"/><circle cx="838" cy="24" r="8" fill="#D3D7E0"/><path fill="#D3D7E0" d="M1147 24h2v40h-2z"/><circle cx="1148" cy="24" r="8" fill="#D3D7E0"/></svg>