<svg width="121" height="121" fill="none" xmlns="http://www.w3.org/2000/svg"><path d="M60.5 0l7.383 4.416 8.276-2.355 5.988 6.177 8.603-.133 4.186 7.517 8.344 2.098 2.098 8.344 7.517 4.186-.133 8.603 6.177 5.988-2.355 8.276L121 60.5l-4.416 7.383 2.355 8.276-6.177 5.988.133 8.603-7.517 4.186-2.098 8.344-8.344 2.098-4.186 7.517-8.603-.133-5.988 6.177-8.276-2.355L60.5 121l-7.383-4.416-8.276 2.355-5.988-6.177-8.603.133-4.186-7.517-8.344-2.098-2.098-8.344-7.517-4.186.133-8.603-6.177-5.988 2.355-8.276L0 60.5l4.416-7.383-2.355-8.276 6.177-5.988-.133-8.603 7.517-4.186 2.098-8.344 8.344-2.098 4.186-7.517 8.603.133 5.988-6.177 8.276 2.355L60.5 0z" fill="#9A001A"/><path d="M60.5 0l7.383 4.416 8.276-2.355 5.988 6.177 8.603-.133 4.186 7.517 8.344 2.098 2.098 8.344 7.517 4.186-.133 8.603 6.177 5.988-2.355 8.276L121 60.5l-4.416 7.383 2.355 8.276-6.177 5.988.133 8.603-7.517 4.186-2.098 8.344-8.344 2.098-4.186 7.517-8.603-.133-5.988 6.177-8.276-2.355L60.5 121l-7.383-4.416-8.276 2.355-5.988-6.177-8.603.133-4.186-7.517-8.344-2.098-2.098-8.344-7.517-4.186.133-8.603-6.177-5.988 2.355-8.276L0 60.5l4.416-7.383-2.355-8.276 6.177-5.988-.133-8.603 7.517-4.186 2.098-8.344 8.344-2.098 4.186-7.517 8.603.133 5.988-6.177 8.276 2.355L60.5 0z" fill="url(#paint0_radial_6_74)" fill-opacity=".2"/><path d="M19.752 47H23.4c.084 0 .196-.002.336-.006.144-.008.272-.018.384-.03.5-.052.914-.204 1.242-.456a2.36 2.36 0 00.744-.966c.164-.392.246-.818.246-1.278 0-.46-.084-.884-.252-1.272a2.309 2.309 0 00-.744-.966c-.328-.256-.74-.41-1.236-.462a4.927 4.927 0 00-.384-.024 6.464 6.464 0 00-.336-.012h-2.016v-1.644h4.296V38.36h-5.928V47zm1.632-1.524v-2.424h1.944c.084 0 .176.004.276.012.1.004.192.016.276.036.332.072.552.226.66.462a1.6 1.6 0 01.168.702c0 .232-.056.466-.168.702-.108.236-.328.39-.66.462a3.48 3.48 0 01-.552.048h-1.944zM27.557 47h5.64v-1.524h-4.008v-2.22h3.288v-1.524h-3.288v-1.848h4.008V38.36h-5.64V47zm10.423.18c.992 0 1.824-.246 2.496-.738.676-.492 1.152-1.158 1.428-1.998l-1.644-.456c-.16.52-.43.926-.81 1.218-.38.292-.87.438-1.47.438-.82 0-1.438-.268-1.854-.804-.412-.54-.618-1.26-.618-2.16 0-.9.206-1.618.618-2.154.416-.54 1.034-.81 1.854-.81.6 0 1.09.146 1.47.438.38.288.65.694.81 1.218l1.644-.456c-.276-.84-.752-1.506-1.428-1.998-.672-.492-1.504-.738-2.496-.738-.864 0-1.61.188-2.238.564a3.783 3.783 0 00-1.446 1.578c-.336.676-.504 1.462-.504 2.358 0 .896.168 1.682.504 2.358.34.676.822 1.202 1.446 1.578.628.376 1.374.564 2.238.564zm5.245-.18h1.632v-7.116h3.864V47h1.632v-8.64h-7.128V47zm8.212 0c.628.124 1.118.106 1.47-.054.356-.16.626-.436.81-.828.184-.392.332-.874.444-1.446.092-.44.17-.894.234-1.362a38.691 38.691 0 00.264-2.55l.066-.876h2.76V47h1.632v-8.64h-5.892c-.012.26-.03.61-.054 1.05-.024.436-.058.92-.102 1.452-.044.532-.1 1.076-.168 1.632a21.521 21.521 0 01-.24 1.578c-.08.424-.168.754-.264.99-.096.232-.22.392-.372.48-.148.084-.344.118-.588.102V47zm8.766 0h1.68l.546-1.8h3.252l.558 1.8h1.68l-2.64-8.64h-2.436L60.203 47zm2.688-3.324l1.152-3.786 1.17 3.786H62.89zM70.284 47h1.631v-7.116h2.724V38.36h-7.08v1.524h2.725V47zm5.32 0h1.632v-3.564H81.1V47h1.632v-8.64H81.1v3.552h-3.864V38.36h-1.632V47zm8.8 0h3.648a6.186 6.186 0 00.72-.048c.776-.12 1.342-.436 1.698-.948.356-.516.534-1.136.534-1.86 0-.728-.18-1.348-.54-1.86-.36-.512-.924-.828-1.692-.948a2.616 2.616 0 00-.384-.036 6.464 6.464 0 00-.336-.012h-2.016V38.36h-1.632V47zm1.632-1.524v-2.664h1.944c.084 0 .176.004.276.012.1.008.192.024.276.048.22.06.39.162.51.306.12.14.202.298.246.474.048.172.072.336.072.492 0 .156-.024.322-.072.498-.044.172-.126.33-.246.474-.12.14-.29.24-.51.3-.084.024-.176.04-.276.048a3.48 3.48 0 01-.276.012h-1.944zM91.868 47H93.5v-8.64h-1.632V47zm6.822-9.36c.352 0 .672-.086.96-.258.288-.172.518-.402.69-.69.172-.288.258-.608.258-.96h-1.26a.63.63 0 01-.192.462.62.62 0 01-.456.186.64.64 0 01-.462-.186.64.64 0 01-.186-.462h-1.26c0 .352.086.672.258.96.172.288.402.518.69.69.288.172.608.258.96.258zM95.186 47h1.656l3.756-5.76V47h1.656v-8.64h-1.656l-3.756 5.76v-5.76h-1.656V47zM34.91 66h1.632v-7.116h3.864V66h1.632v-8.64H34.91V66zm12.52.18c.865 0 1.609-.188 2.233-.564a3.732 3.732 0 001.446-1.578c.34-.676.51-1.462.51-2.358 0-.896-.17-1.682-.51-2.358a3.732 3.732 0 00-1.446-1.578c-.624-.376-1.368-.564-2.232-.564-.864 0-1.61.188-2.238.564a3.783 3.783 0 00-1.446 1.578c-.336.676-.504 1.462-.504 2.358 0 .896.168 1.682.504 2.358.34.676.822 1.202 1.446 1.578.628.376 1.374.564 2.238.564zm0-1.536c-.82-.012-1.435-.284-1.847-.816-.408-.532-.612-1.248-.612-2.148 0-.9.204-1.622.612-2.166.412-.544 1.028-.81 1.848-.798.824.012 1.44.284 1.848.816.408.532.612 1.248.612 2.148 0 .9-.204 1.622-.612 2.166-.408.544-1.024.81-1.848.798zm4.672 2.796h1.632V66h4.98v1.44h1.632v-2.964h-.66V57.36l-5.736-.012a401.6 401.6 0 00-.156 2.37c-.044.7-.096 1.41-.156 2.13a7.7 7.7 0 01-.228 1.35c-.108.396-.266.708-.474.936-.208.228-.486.342-.834.342v2.964zm2.436-2.964c.164-.216.286-.424.366-.624.084-.2.146-.434.186-.702.04-.272.08-.618.12-1.038a47.133 47.133 0 00.156-2.148c.02-.332.044-.696.072-1.092l2.616.012v5.592h-3.516zM61.664 66h3.648c.084 0 .196-.002.336-.006.144-.008.272-.018.384-.03.5-.052.914-.204 1.242-.456a2.36 2.36 0 00.744-.966c.164-.392.246-.818.246-1.278 0-.46-.084-.884-.252-1.272a2.309 2.309 0 00-.744-.966c-.328-.256-.74-.41-1.236-.462a4.927 4.927 0 00-.384-.024 6.464 6.464 0 00-.336-.012h-2.016v-1.644h4.296V57.36h-5.928V66zm1.632-1.524v-2.424h1.944c.084 0 .176.004.276.012.1.004.192.016.276.036.332.072.552.226.66.462a1.6 1.6 0 01.168.702c0 .232-.056.466-.168.702-.108.236-.328.39-.66.462a3.48 3.48 0 01-.552.048h-1.944zm9.88 1.704c.865 0 1.609-.188 2.233-.564a3.732 3.732 0 001.446-1.578c.34-.676.51-1.462.51-2.358 0-.896-.17-1.682-.51-2.358a3.732 3.732 0 00-1.446-1.578c-.624-.376-1.368-.564-2.232-.564-.864 0-1.61.188-2.238.564a3.783 3.783 0 00-1.446 1.578c-.336.676-.504 1.462-.504 2.358 0 .896.168 1.682.504 2.358.34.676.822 1.202 1.446 1.578.628.376 1.374.564 2.238.564zm0-1.536c-.82-.012-1.435-.284-1.847-.816-.408-.532-.612-1.248-.612-2.148 0-.9.204-1.622.612-2.166.412-.544 1.028-.81 1.848-.798.824.012 1.44.284 1.848.816.408.532.612 1.248.612 2.148 0 .9-.204 1.622-.612 2.166-.408.544-1.024.81-1.848.798zM78.564 66h1.632v-2.928h2.016a6.464 6.464 0 00.72-.048c.768-.12 1.332-.436 1.692-.948.36-.516.54-1.136.54-1.86 0-.728-.178-1.348-.534-1.86-.356-.512-.922-.828-1.698-.948a2.616 2.616 0 00-.384-.036 6.186 6.186 0 00-.336-.012h-3.648V66zm1.632-4.452v-2.664h1.944c.084 0 .176.004.276.012.1.008.192.024.276.048.22.06.39.162.51.306.12.14.202.298.246.474.048.172.072.336.072.492 0 .156-.024.322-.072.498-.044.172-.126.33-.246.474-.12.14-.29.24-.51.3-.084.024-.176.04-.276.048a3.48 3.48 0 01-.276.012h-1.944zM18.38 85h3.018c.164 0 .338-.006.522-.018a2.59 2.59 0 00.522-.084c.356-.104.64-.296.852-.576.212-.28.318-.642.318-1.086 0-.64-.236-1.102-.708-1.386a1.22 1.22 0 00-.414-.168c.148-.064.284-.164.408-.3.128-.132.226-.288.294-.468.072-.184.108-.392.108-.624 0-.416-.112-.77-.336-1.062a1.582 1.582 0 00-.876-.594 3.175 3.175 0 00-.546-.09 6.06 6.06 0 00-.492-.024h-2.67V85zm.888-3.618v-2.106h1.692c.044 0 .148.004.312.012.168.008.324.038.468.09.212.068.37.19.474.366.108.172.162.37.162.594 0 .208-.05.4-.15.576a.79.79 0 01-.456.372c-.1.036-.214.062-.342.078a3.759 3.759 0 01-.348.018h-1.812zm0 2.868v-2.112h1.962c.08 0 .17.002.27.006.104.004.2.016.288.036.272.04.492.152.66.336.168.18.252.412.252.696 0 .216-.056.416-.168.6-.108.18-.28.3-.516.36a1.95 1.95 0 01-.342.06 3.524 3.524 0 01-.318.018h-2.088zm10.786-8.064c-.536 0-1.026.13-1.47.39a3.05 3.05 0 00-1.062 1.044 2.75 2.75 0 00-.396 1.452c0 .536.126 1.02.378 1.452.252.432.592.776 1.02 1.032.428.252.91.378 1.446.378.42 0 .812-.092 1.176-.276.368-.184.68-.432.936-.744v1.326a2.123 2.123 0 01-1.014 1.812 2.038 2.038 0 01-1.08.288 2.01 2.01 0 01-.996-.258 2.126 2.126 0 01-.732-.69l-.678.558c.268.388.612.69 1.032.906.424.216.882.324 1.374.324.568 0 1.078-.13 1.53-.39a2.896 2.896 0 001.068-1.074c.26-.456.39-.974.39-1.554v-2.994c0-.56-.132-1.066-.396-1.518a2.893 2.893 0 00-1.05-1.068 2.813 2.813 0 00-1.476-.396zm0 .858c.376 0 .716.092 1.02.276.308.184.552.43.732.738.184.304.276.642.276 1.014 0 .376-.092.718-.276 1.026-.18.308-.424.554-.732.738-.308.184-.65.276-1.026.276s-.718-.092-1.026-.276a2.103 2.103 0 01-.738-.738c-.18-.308-.27-.65-.27-1.026s.092-.716.276-1.02c.184-.308.43-.552.738-.732.308-.184.65-.276 1.026-.276zm7.417 8.136a2.76 2.76 0 002.448-1.38 2.82 2.82 0 00.372-1.44V79c0-.536-.123-1.016-.372-1.44a2.768 2.768 0 00-1.008-1.008 2.799 2.799 0 00-1.44-.372 2.82 2.82 0 00-1.44.372c-.423.248-.76.584-1.007 1.008a2.799 2.799 0 00-.372 1.44v3.36c0 .532.123 1.012.372 1.44.248.424.584.76 1.008 1.008a2.82 2.82 0 001.44.372zm0-.852c-.352 0-.674-.086-.965-.258a2.033 2.033 0 01-.703-.702 1.868 1.868 0 01-.258-.966v-3.444c0-.356.087-.68.258-.972.176-.292.41-.524.703-.696.291-.176.614-.264.965-.264.356 0 .678.088.966.264.292.172.524.404.697.696.175.292.264.616.264.972v3.444c0 .352-.089.674-.264.966a1.983 1.983 0 01-.697.702c-.288.172-.61.258-.966.258zm6.545-3.828c.396 0 .756-.096 1.08-.288.328-.196.59-.456.786-.78.196-.328.294-.692.294-1.092 0-.4-.098-.762-.294-1.086a2.192 2.192 0 00-.786-.78 2.046 2.046 0 00-1.08-.294c-.384 0-.74.098-1.068.294a2.292 2.292 0 00-.792.786c-.2.328-.3.688-.3 1.08 0 .4.098.764.294 1.092.196.324.456.584.78.78.328.192.69.288 1.086.288zm-1.2 4.5l8.058-8.046-.6-.594-8.058 8.04.6.6zm1.2-5.298a1.3 1.3 0 01-.678-.186 1.414 1.414 0 01-.498-.498 1.3 1.3 0 01-.186-.678c0-.248.062-.474.186-.678.124-.208.29-.374.498-.498a1.3 1.3 0 01.678-.186c.248 0 .474.062.678.186.208.124.374.29.498.498.124.204.186.43.186.678a1.3 1.3 0 01-.186.678c-.124.208-.29.374-.498.498a1.28 1.28 0 01-.678.186zm5.058 5.478c.396 0 .756-.096 1.08-.288.328-.196.59-.456.786-.78.196-.328.294-.692.294-1.092 0-.4-.098-.762-.294-1.086a2.192 2.192 0 00-.786-.78 2.046 2.046 0 00-1.08-.294c-.384 0-.74.098-1.068.294a2.292 2.292 0 00-.792.786c-.2.328-.3.688-.3 1.08 0 .4.096.764.288 1.092.196.324.458.584.786.78.328.192.69.288 1.086.288zm0-.798a1.3 1.3 0 01-.678-.186 1.414 1.414 0 01-.498-.498 1.3 1.3 0 01-.186-.678c0-.248.062-.474.186-.678.124-.208.29-.374.498-.498a1.3 1.3 0 01.678-.186c.248 0 .474.062.678.186.208.124.374.29.498.498.124.204.186.43.186.678a1.3 1.3 0 01-.186.678c-.124.208-.29.374-.498.498a1.28 1.28 0 01-.678.186zm8.808.798c.645 0 1.197-.15 1.656-.45.465-.304.819-.744 1.063-1.32l-.888-.264c-.328.792-.938 1.188-1.83 1.188-.697 0-1.22-.234-1.572-.702-.352-.472-.532-1.096-.54-1.872.008-.756.181-1.374.522-1.854.344-.48.873-.72 1.59-.72.423 0 .8.108 1.127.324.332.212.575.512.726.9l.864-.276a2.419 2.419 0 00-1-1.314c-.483-.32-1.053-.48-1.71-.48-.644 0-1.192.144-1.644.432a2.746 2.746 0 00-1.037 1.2c-.24.512-.364 1.108-.372 1.788.008.664.128 1.254.36 1.77.236.516.58.92 1.032 1.212.451.292 1.003.438 1.655.438zm3.181-.18c.408.08.728.086.96.018a.866.866 0 00.528-.42c.12-.212.214-.496.282-.852.064-.316.124-.708.18-1.176.056-.468.108-.978.156-1.53s.092-1.11.132-1.674h2.712V85h.876v-6.48h-4.404c-.064 1.028-.13 1.93-.198 2.706a23.865 23.865 0 01-.246 2.04c-.06.352-.148.616-.264.792-.112.176-.35.232-.714.168V85zm8.427 2.88h.882l3.48-9.36h-.9l-1.962 5.328-2.13-5.328h-.936l2.634 6.462-1.068 2.898zM78.86 85h.882v-6.48h-.882v3.24c-.196.14-.438.252-.726.336-.288.08-.592.12-.912.12-.512 0-.91-.112-1.194-.336-.28-.224-.46-.554-.54-.99a3.762 3.762 0 01-.054-.486 9.668 9.668 0 01-.012-.456V78.52h-.888v1.428c0 .096.004.282.012.558.012.272.046.532.102.78.12.552.384.974.792 1.266.412.292.946.438 1.602.438.364 0 .704-.038 1.02-.114.316-.08.582-.176.798-.288V85zm4.415.18c1.132 0 1.954-.418 2.466-1.254V85h.786v-4.026c0-.24-.012-.476-.036-.708a2.172 2.172 0 00-.156-.63 1.857 1.857 0 00-.882-.96c-.412-.224-.914-.336-1.506-.336-.712 0-1.292.16-1.74.48-.448.32-.748.77-.9 1.35l.858.252c.124-.432.338-.748.642-.948.308-.2.684-.3 1.128-.3.616 0 1.056.144 1.32.432.264.284.4.718.408 1.302-.288.04-.606.082-.954.126-.344.044-.69.094-1.038.15-.348.056-.668.12-.96.192-.484.128-.88.342-1.188.642-.308.296-.462.71-.462 1.242 0 .344.082.662.246.954.164.292.41.526.738.702.332.176.742.264 1.23.264zm.102-.762c-.348 0-.628-.056-.84-.168a1.123 1.123 0 01-.456-.438 1.2 1.2 0 01-.138-.552c0-.352.118-.616.354-.792.236-.176.492-.304.768-.384.356-.096.77-.174 1.242-.234l1.344-.168c0 .148-.006.318-.018.51-.008.188-.03.362-.066.522a2.002 2.002 0 01-.696 1.218c-.376.324-.874.486-1.494.486zm7.454.762a3.13 3.13 0 001.686-.462c.5-.308.878-.746 1.134-1.314l-.822-.318c-.412.832-1.09 1.248-2.034 1.248-.648 0-1.156-.202-1.524-.606-.364-.404-.564-.978-.6-1.722h5.106c.032-1.144-.218-2.04-.75-2.688-.528-.652-1.272-.978-2.232-.978-.624 0-1.166.14-1.626.42a2.81 2.81 0 00-1.062 1.194c-.252.516-.378 1.128-.378 1.836 0 .684.126 1.28.378 1.788.256.508.616.902 1.08 1.182.468.28 1.016.42 1.644.42zm-.012-6.03c1.22 0 1.898.706 2.034 2.118H88.69c.068-.684.284-1.208.648-1.572.364-.364.858-.546 1.482-.546zM95.104 85h3.017c.165 0 .339-.006.523-.018a2.59 2.59 0 00.521-.084c.356-.104.64-.296.853-.576.212-.28.318-.642.318-1.086 0-.64-.236-1.102-.709-1.386a1.22 1.22 0 00-.413-.168c.148-.064.284-.164.407-.3a1.32 1.32 0 00.294-.468c.072-.184.109-.392.109-.624 0-.416-.112-.77-.337-1.062a1.582 1.582 0 00-.876-.594 3.175 3.175 0 00-.546-.09 6.06 6.06 0 00-.492-.024h-2.67V85zm.888-3.618v-2.106h1.691c.044 0 .148.004.313.012.168.008.324.038.468.09.212.068.37.19.474.366.108.172.162.37.162.594 0 .208-.05.4-.15.576a.79.79 0 01-.457.372c-.1.036-.213.062-.341.078a3.759 3.759 0 01-.349.018h-1.811zm0 2.868v-2.112h1.962c.08 0 .17.002.27.006.103.004.2.016.287.036.273.04.493.152.66.336.168.18.252.412.252.696 0 .216-.055.416-.168.6a.8.8 0 01-.515.36 1.95 1.95 0 01-.343.06 3.524 3.524 0 01-.318.018h-2.087zm6.139-1.41h.882v-6.48h-.882v6.48zm0 2.16h.882v-.99h-.882V85z" fill="#fff"/><defs><radialGradient id="paint0_radial_6_74" cx="0" cy="0" r="1" gradientUnits="userSpaceOnUse" gradientTransform="matrix(0 50 -50 0 61 63.5)"><stop stop-opacity="0"/><stop offset="1"/></radialGradient></defs></svg>